:FULLY-SPECIFIED
:FORCE-ALL-JOINTS-BE-3DOF
:DEGREES
1529
root -5.6688 15.3463 19.6311 558.214 7.67014 546.535
lfemur -48.9551 9.31941 -26.0469
ltibia 89.2359 0 0
lfoot -10.3018 19.8407 0
ltoes -24.7679 0 0
rfemur -44.3701 -0.500542 16.4704
rtibia 67.163 0 0
rfoot -19.3927 -7.03264 0
rtoes -25.0219 0 0
lowerback 19.7697 0.813821 3.71937
upperback -1.25638 2.53663 2.97639
thorax -12.5005 1.11766 0.413942
lowerneck -3.45336 8.73582 4.04889
upperneck 4.02034 12.3206 -10.8644
head 2.6879 6.01702 -3.39962
lclavicle -1.82591e-14 8.53757e-15 0
lhumerus 69.8249 -67.7817 35.5843
lradius 121.112 0 0
lwrist 18.4308 0 0
lhand -23.0819 40.36 0
lfingers 7.12502 0 0
lthumb 3.36407 -266.359 0
rclavicle -1.82591e-14 8.53757e-15 0
rhumerus -39.1048 51.0481 -79.0696
rradius 110.728 0 0
rwrist -42.0909 0 0
rhand 6.13984 -32.8216 0
rfingers 7.12502 0 0
rthumb 31.4655 -60.2388 0
1530
root -5.73234 15.3521 19.6552 557.876 7.42938 545.952
lfemur -48.7182 9.29716 -25.9804
ltibia 88.9435 0 0
lfoot -10.3349 19.8489 0
ltoes -24.8458 0 0
rfemur -44.4578 -0.592659 16.4534
rtibia 67.2681 0 0
rfoot -19.3431 -7.05379 0
rtoes -24.8996 0 0
lowerback 19.7543 0.812615 3.65605
upperback -1.25519 2.51855 2.96595
thorax -12.4898 1.11209 0.443735
lowerneck -3.46558 8.66386 3.99235
upperneck 4.02019 12.2229 -10.7974
head 2.68616 5.96861 -3.37394
lclavicle -1.8193e-14 8.41732e-15 0
lhumerus 69.3015 -67.5173 35.8908
lradius 120.831 0 0
lwrist 18.4602 0 0
lhand -23.0812 40.3449 0
lfingers 7.12502 0 0
lthumb 3.36473 -265.225 0
rclavicle -1.8193e-14 8.41732e-15 0
rhumerus -38.9214 50.8735 -79.0038
rradius 110.702 0 0
rwrist -41.9835 0 0
rhand 6.09234 -32.7745 0
rfingers 7.12502 0 0
rthumb 31.4196 -60.1932 0
1531
root -5.79588 15.3579 19.6793 557.418 7.17614 545.229
lfemur -48.4292 9.267 -25.8977
ltibia 88.5908 0 0
lfoot -10.3729 19.8623 0
ltoes -24.9358 0 0
rfemur -44.565 -0.701757 16.432
rtibia 67.3872 0 0
rfoot -19.2833 -7.07783 0
rtoes -24.7527 0 0
lowerback 19.7362 0.811974 3.58185
upperback -1.25392 2.49827 2.95271
thorax -12.4774 1.10598 0.477288
lowerneck -3.48043 8.5784 3.92503
upperneck 4.0204 12.1069 -10.7174
head 2.68438 5.91116 -3.34326
lclavicle -1.81189e-14 8.27025e-15 0
lhumerus 68.6704 -67.2051 36.2572
lradius 120.511 0 0
lwrist 18.5062 0 0
lhand -23.0802 40.3293 0
lfingers 7.12502 0 0
lthumb 3.36564 -263.982 0
rclavicle -1.81189e-14 8.27025e-15 0
rhumerus -38.6778 50.6592 -78.907
rradius 110.658 0 0
rwrist -41.8417 0 0
rhand 6.02682 -32.7198 0
rfingers 7.12502 0 0
rthumb 31.3563 -60.1411 0
1532
root -5.85942 15.3637 19.7034 556.862 6.89246 544.372
lfemur -48.0887 9.23037 -25.7998
ltibia 88.1769 0 0
lfoot -10.4168 19.8794 0
ltoes -25.0401 0 0
rfemur -44.6914 -0.829103 16.4064
rtibia 67.5242 0 0
rfoot -19.2132 -7.10551 0
rtoes -24.5804 0 0
lowerback 19.715 0.81152 3.49554
upperback -1.25248 2.47501 2.93693
thorax -12.4631 1.09902 0.515806
lowerneck -3.4979 8.47857 3.84633
upperneck 4.02079 11.9714 -10.6237
head 2.68241 5.84407 -3.30735
lclavicle -1.80339e-14 8.09684e-15 0
lhumerus 67.9297 -66.841 36.6861
lradius 120.142 0 0
lwrist 18.564 0 0
lhand -23.0791 40.312 0
lfingers 7.12502 0 0
lthumb 3.36675 -262.568 0
rclavicle -1.80339e-14 8.09684e-15 0
rhumerus -38.3837 50.4063 -78.7869
rradius 110.601 0 0
rwrist -41.6707 0 0
rhand 5.94689 -32.6562 0
rfingers 7.12502 0 0
rthumb 31.2791 -60.0811 0
1533
root -5.92296 15.3696 19.7275 556.23 6.5604 543.388
lfemur -47.6974 9.18872 -25.6874
ltibia 87.7006 0 0
lfoot -10.4677 19.8985 0
ltoes -25.1608 0 0
rfemur -44.8366 -0.975963 16.3771
rtibia 67.6829 0 0
rfoot -19.1325 -7.13759 0
rtoes -24.3819 0 0
lowerback 19.6905 0.810875 3.39589
upperback -1.2508 2.44802 2.91886
thorax -12.4466 1.09092 0.560493
lowerneck -3.51799 8.36348 3.75562
upperneck 4.02118 11.8152 -10.5158
head 2.68009 5.76671 -3.26597
lclavicle -1.79354e-14 7.89757e-15 0
lhumerus 67.0771 -66.4211 37.1803
lradius 119.714 0 0
lwrist 18.6291 0 0
lhand -23.0778 40.2916 0
lfingers 7.12502 0 0
lthumb 3.36802 -260.922 0
rclavicle -1.79354e-14 7.89757e-15 0
rhumerus -38.0486 50.1158 -78.6513
rradius 110.538 0 0
rwrist -41.4757 0 0
rhand 5.85613 -32.5827 0
rfingers 7.12502 0 0
rthumb 31.1915 -60.0115 0
1534
root -5.9865 15.3754 19.7516 555.542 6.16199 542.286
lfemur -47.2558 9.14349 -25.5615
ltibia 87.1605 0 0
lfoot -10.5264 19.9181 0
ltoes -25.2998 0 0
rfemur -45.0004 -1.1436 16.3446
rtibia 67.8675 0 0
rfoot -19.041 -7.17482 0
rtoes -24.1568 0 0
lowerback 19.6626 0.809661 3.28165
upperback -1.2488 2.41653 2.89877
thorax -12.4275 1.08138 0.612554
lowerneck -3.5407 8.23223 3.65228
upperneck 4.02138 11.6371 -10.393
head 2.67728 5.67847 -3.21891
lclavicle -1.78203e-14 7.67293e-15 0
lhumerus 66.1106 -65.9411 37.7423
lradius 119.219 0 0
lwrist 18.6965 0 0
lhand -23.0764 40.267 0
lfingers 7.12502 0 0
lthumb 3.36938 -258.983 0
rclavicle -1.78203e-14 7.67293e-15 0
rhumerus -37.6819 49.7887 -78.508
rradius 110.474 0 0
rwrist -41.2621 0 0
rhand 5.75815 -32.4983 0
rfingers 7.12502 0 0
rthumb 31.0968 -59.931 0
1535
root -6.05004 15.3812 19.7757 554.822 5.6793 541.072
lfemur -46.7646 9.09609 -25.423
ltibia 86.5557 0 0
lfoot -10.594 19.9366 0
ltoes -25.4592 0 0
rfemur -45.1823 -1.33328 16.3091
rtibia 68.0818 0 0
rfoot -18.9384 -7.21796 0
rtoes -23.9041 0 0
lowerback 19.6309 0.8075 3.15158
upperback -1.2464 2.37976 2.87692
thorax -12.4056 1.07011 0.673193
lowerneck -3.56601 8.08395 3.53571
upperneck 4.02123 11.4358 -10.2548
head 2.67381 5.57874 -3.16593
lclavicle -1.76858e-14 7.42341e-15 0
lhumerus 65.0282 -65.397 38.3747
lradius 118.646 0 0
lwrist 18.7616 0 0
lhand -23.0749 40.2368 0
lfingers 7.12502 0 0
lthumb 3.3708 -256.688 0
rclavicle -1.76858e-14 7.42341e-15 0
rhumerus -37.2934 49.426 -78.3648
rradius 110.414 0 0
rwrist -41.035 0 0
rhand 5.65654 -32.4018 0
rfingers 7.12502 0 0
rthumb 30.9986 -59.8379 0
1536
root -6.11357 15.387 19.7998 554.089 5.09437 539.754
lfemur -46.2242 9.04799 -25.2727
ltibia 85.8849 0 0
lfoot -10.6716 19.9522 0
ltoes -25.6412 0 0
rfemur -45.3821 -1.54628 16.2713
rtibia 68.3297 0 0
rfoot -18.8245 -7.26775 0
rtoes -23.6234 0 0
lowerback 19.5952 0.804014 3.00446
upperback -1.24353 2.33695 2.85356
thorax -12.3805 1.05682 0.743617
lowerneck -3.59393 7.91773 3.40527
upperneck 4.02053 11.21 -10.1005
head 2.66955 5.46691 -3.10681
lclavicle -1.7529e-14 7.14949e-15 0
lhumerus 63.8277 -64.7848 39.0802
lradius 117.985 0 0
lwrist 18.8197 0 0
lhand -23.0734 40.1999 0
lfingers 7.12502 0 0
lthumb 3.37222 -253.978 0
rclavicle -1.7529e-14 7.14949e-15 0
rhumerus -36.8924 49.0289 -78.2295
rradius 110.364 0 0
rwrist -40.7997 0 0
rhand 5.5549 -32.2923 0
rfingers 7.12502 0 0
rthumb 30.9002 -59.7307 0
1537
root -6.17711 15.3928 19.8239 553.365 4.38924 538.339
lfemur -45.6355 9.0006 -25.1115
ltibia 85.147 0 0
lfoot -10.7599 19.9636 0
ltoes -25.8478 0 0
rfemur -45.5994 -1.78385 16.2314
rtibia 68.6153 0 0
rfoot -18.6989 -7.32495 0
rtoes -23.3137 0 0
lowerback 19.5552 0.798826 2.83904
upperback -1.24011 2.28733 2.82896
thorax -12.3519 1.0412 0.825028
lowerneck -3.62444 7.7327 3.26037
upperneck 4.01911 10.9587 -9.92963
head 2.66433 5.34236 -3.04131
lclavicle -1.73471e-14 6.85165e-15 0
lhumerus 62.507 -64.1003 39.8614
lradius 117.228 0 0
lwrist 18.8661 0 0
lhand -23.072 40.1549 0
lfingers 7.12502 0 0
lthumb 3.3736 -250.79 0
rclavicle -1.73471e-14 6.85165e-15 0
rhumerus -36.4885 48.5982 -78.1098
rradius 110.33 0 0
rwrist -40.5614 0 0
rhand 5.45684 -32.1685 0
rfingers 7.12502 0 0
rthumb 30.8052 -59.6078 0
1538
root -6.24065 15.3986 19.848 552.672 3.54596 536.834
lfemur -44.9989 8.95537 -24.9403
ltibia 84.3407 0 0
lfoot -10.8601 19.969 0
ltoes -26.081 0 0
rfemur -45.8339 -2.04726 16.1899
rtibia 68.9424 0 0
rfoot -18.5616 -7.39031 0
rtoes -22.9746 0 0
lowerback 19.5108 0.791557 2.65408
upperback -1.23606 2.23014 2.80338
thorax -12.3196 1.02296 0.918633
lowerneck -3.65755 7.52796 3.10037
upperneck 4.01679 10.6805 -9.7415
head 2.658 5.20448 -2.96923
lclavicle -1.71373e-14 6.53038e-15 0
lhumerus 61.064 -63.3396 40.7209
lradius 116.364 0 0
lwrist 18.896 0 0
lhand -23.0707 40.1007 0
lfingers 7.12502 0 0
lthumb 3.37489 -247.062 0
rclavicle -1.71373e-14 6.53038e-15 0
rhumerus -36.0912 48.1351 -78.0135
rradius 110.317 0 0
rwrist -40.3253 0 0
rhand 5.36593 -32.0295 0
rfingers 7.12502 0 0
rthumb 30.7169 -59.4679 0
1539
root -6.30419 15.4045 19.872 552.031 2.54659 535.246
lfemur -44.315 8.91373 -24.7599
ltibia 83.4649 0 0
lfoot -10.9732 19.9668 0
ltoes -26.3429 0 0
rfemur -46.0852 -2.33777 16.1472
rtibia 69.3151 0 0
rfoot -18.4122 -7.46459 0
rtoes -22.6053 0 0
lowerback 19.4615 0.781828 2.44835
upperback -1.2313 2.16461 2.77708
thorax -12.2832 1.00181 1.02564
lowerneck -3.69324 7.30262 2.92466
upperneck 4.01337 10.3743 -9.53553
head 2.65042 5.05265 -2.89032
lclavicle -1.68965e-14 6.18617e-15 0
lhumerus 59.4967 -62.4985 41.6613
lradius 115.385 0 0
lwrist 18.9046 0 0
lhand -23.0695 40.036 0
lfingers 7.12502 0 0
lthumb 3.37603 -242.734 0
rclavicle -1.68965e-14 6.18617e-15 0
rhumerus -35.7101 47.6405 -77.9485
rradius 110.331 0 0
rwrist -40.0968 0 0
rhand 5.28579 -31.8741 0
rfingers 7.12502 0 0
rthumb 30.6389 -59.3092 0
1540
root -6.36773 15.4103 19.8961 551.464 1.37317 533.583
lfemur -43.5845 8.87712 -24.5713
ltibia 82.5184 0 0
lfoot -11.1001 19.9555 0
ltoes -26.6356 0 0
rfemur -46.3531 -2.65666 16.1038
rtibia 69.7372 0 0
rfoot -18.2505 -7.54853 0
rtoes -22.205 0 0
lowerback 19.4073 0.769264 2.22062
upperback -1.22576 2.08997 2.75032
thorax -12.2424 0.977445 1.14724
lowerneck -3.73152 7.05581 2.73262
upperneck 4.00869 10.0387 -9.31114
head 2.64143 4.88626 -2.80436
lclavicle -1.66221e-14 5.81949e-15 0
lhumerus 57.8029 -61.5729 42.6853
lradius 114.28 0 0
lwrist 18.8874 0 0
lhand -23.0685 39.9595 0
lfingers 7.12502 0 0
lthumb 3.37699 -237.744 0
rclavicle -1.66221e-14 5.81949e-15 0
rhumerus -35.3547 47.1155 -77.9224
rradius 110.377 0 0
rwrist -39.8809 0 0
rhand 5.22001 -31.7013 0
rfingers 7.12502 0 0
rthumb 30.5745 -59.1304 0
1541
root -6.43127 15.4161 19.9202 550.992 0.00774229 531.852
lfemur -42.8079 8.84698 -24.3753
ltibia 81.5001 0 0
lfoot -11.2418 19.9335 0
ltoes -26.9612 0 0
rfemur -46.6371 -3.00519 16.06
rtibia 70.2127 0 0
rfoot -18.0762 -7.6429 0
rtoes -21.7731 0 0
lowerback 19.3478 0.753484 1.96963
upperback -1.21935 2.00545 2.72336
thorax -12.1969 0.949576 1.28465
lowerneck -3.77237 6.78662 2.52364
upperneck 4.00256 9.67266 -9.06771
head 2.63088 4.70469 -2.71112
lclavicle -1.63111e-14 5.43083e-15 0
lhumerus 55.9806 -60.5588 43.7955
lradius 113.04 0 0
lwrist 18.8395 0 0
lhand -23.0678 39.8699 0
lfingers 7.12502 0 0
lthumb 3.3777 -232.03 0
rclavicle -1.63111e-14 5.43083e-15 0
rhumerus -35.0346 46.5611 -77.9431
rradius 110.461 0 0
rwrist -39.6831 0 0
rhand 5.17218 -31.51 0
rfingers 7.12502 0 0
rthumb 30.5273 -58.9299 0
